<!--?xml version="1.0" encoding="utf-8"?-->
<!-- Generator: Adobe Illustrator 19.1.1, SVG Export Plug-In . SVG Version: 6.00 Build 0)  -->
<svg version="1.1" id="_x31_0" xmlns="http://www.w3.org/2000/svg" xmlns:xlink="http://www.w3.org/1999/xlink" x="0px" y="0px" viewBox="0 0 512 512" style="width: 256px; height: 256px; opacity: 1;" xml:space="preserve">
<style type="text/css">
	.st0{fill:#374149;}
</style>
<g>
	<path class="st0" d="M426.138,221.103l-41.461-11.145l-77.422-20.809c8.699-38.706,20.313-90.378,21.699-96.422l11.821-51.613
		c7.886-34.422-35.985-56.024-58.461-28.79l-33.703,40.836L103.81,228.607l-27.348,33.14c-8.515,10.313-3.511,25.977,9.406,29.446
		l41.496,11.145l77.508,20.816l-21.684,96.657l-11.492,51.226c-7.711,34.386,36.094,55.82,58.512,28.625l33.386-40.508
		l144.649-175.488l27.304-33.129C444.048,240.223,439.045,224.571,426.138,221.103z M228.157,429.575l31.278-139.414l-84.969-22.82
		l-35.117-9.5L284.099,82.45c-2.282,9.954-31.414,139.684-31.414,139.684l85.024,22.847l34.98,9.473l-76.274,92.535L228.157,429.575
		z" style="fill: rgb(75, 75, 75);"></path>
</g>
</svg>
